<svg width="50" height="50" viewBox="0 0 50 50" fill="none" xmlns="http://www.w3.org/2000/svg">
<path d="M25 50C38.8071 50 50 38.8071 50 25C50 11.1929 38.8071 0 25 0C11.1929 0 0 11.1929 0 25C0 38.8071 11.1929 50 25 50Z" fill="#E74133"/>
<path fill-rule="evenodd" clip-rule="evenodd" d="M35.8 23.0002H25.2V27.3502H31.25C31 28.7502 30.2 29.9502 29 30.7002C28 31.3502 26.7 31.8002 25.2 31.8002C22.3 31.8002 19.8 29.8002 18.9 27.1502C18.7 26.5002 18.55 25.7502 18.55 25.0502C18.55 24.3502 18.7 23.6002 18.9 22.9502V22.8002L19 22.8502C19.8 20.2002 22.3 18.2002 25.2 18.2002C26.85 18.2002 28.35 18.8002 29.5 19.8502L32.75 16.6002C30.8 14.8002 28.25 13.7002 25.25 13.7002C20.85 13.7002 17.1 16.2002 15.25 19.9002L15.35 20.0002H15.15C14.4 21.5502 13.95 23.2502 13.95 25.0502C13.95 26.8502 14.4 28.6002 15.15 30.1002C17.05 33.7502 20.8 36.2502 25.2 36.2502C28.2 36.2502 30.7 35.3002 32.55 33.5502H32.6C34.75 31.5502 35.95 28.7002 35.95 25.3002C36 24.4502 35.9 23.7002 35.8 23.0002Z" fill="white"/>
</svg>
