<svg width="14" height="14" viewBox="0 0 14 14" fill="none" xmlns="http://www.w3.org/2000/svg">
<path d="M13.3 0.710224C13.2075 0.61752 13.0976 0.543973 12.9766 0.493791C12.8557 0.44361 12.726 0.417779 12.595 0.417779C12.464 0.417779 12.3344 0.44361 12.2134 0.493791C12.0924 0.543973 11.9825 0.61752 11.89 0.710224L7.00001 5.59022L2.11001 0.700223C2.01743 0.607642 1.90752 0.534202 1.78655 0.484097C1.66559 0.433992 1.53594 0.408203 1.40501 0.408203C1.27408 0.408203 1.14443 0.433992 1.02347 0.484097C0.902502 0.534202 0.792592 0.607642 0.70001 0.700223C0.607428 0.792805 0.533988 0.902716 0.483883 1.02368C0.433778 1.14464 0.40799 1.27429 0.40799 1.40522C0.40799 1.53615 0.433778 1.6658 0.483883 1.78677C0.533988 1.90773 0.607428 2.01764 0.70001 2.11022L5.59001 7.00022L0.70001 11.8902C0.607428 11.9828 0.533988 12.0927 0.483883 12.2137C0.433778 12.3346 0.40799 12.4643 0.40799 12.5952C0.40799 12.7262 0.433778 12.8558 0.483883 12.9768C0.533988 13.0977 0.607428 13.2076 0.70001 13.3002C0.792592 13.3928 0.902502 13.4662 1.02347 13.5163C1.14443 13.5665 1.27408 13.5922 1.40501 13.5922C1.53594 13.5922 1.66559 13.5665 1.78655 13.5163C1.90752 13.4662 2.01743 13.3928 2.11001 13.3002L7.00001 8.41022L11.89 13.3002C11.9826 13.3928 12.0925 13.4662 12.2135 13.5163C12.3344 13.5665 12.4641 13.5922 12.595 13.5922C12.7259 13.5922 12.8556 13.5665 12.9766 13.5163C13.0975 13.4662 13.2074 13.3928 13.3 13.3002C13.3926 13.2076 13.466 13.0977 13.5161 12.9768C13.5662 12.8558 13.592 12.7262 13.592 12.5952C13.592 12.4643 13.5662 12.3346 13.5161 12.2137C13.466 12.0927 13.3926 11.9828 13.3 11.8902L8.41001 7.00022L13.3 2.11022C13.68 1.73022 13.68 1.09022 13.3 0.710224Z" fill="#555454"/>
</svg>
