<svg width="50" height="50" viewBox="0 0 50 50" fill="none" xmlns="http://www.w3.org/2000/svg">
<path d="M25 50C38.8071 50 50 38.8071 50 25C50 11.1929 38.8071 0 25 0C11.1929 0 0 11.1929 0 25C0 38.8071 11.1929 50 25 50Z" fill="#FEE100"/>
<path d="M25 15C18.1 15 12.5 19.4 12.5 24.9C12.5 28.45 14.85 31.55 18.45 33.3C18.2 34.3 17.5 36.85 17.35 37.4C17.2 38.1 17.6 38.05 17.85 37.9C18.05 37.75 21.3 35.55 22.65 34.65C23.4 34.75 24.2 34.8 24.95 34.8C31.85 34.8 37.45 30.35 37.45 24.9C37.5 19.45 31.9 15 25 15Z" fill="#391B1B"/>
<path d="M19.95 22H16.3C15.95 22 15.7 22.3 15.7 22.6C15.7 22.95 16 23.2 16.3 23.2H17.5V27.6C17.5 27.75 17.55 27.9 17.7 28.05C17.8 28.15 17.95 28.25 18.15 28.25H18.3C18.45 28.25 18.6 28.2 18.75 28.05C18.85 27.95 18.95 27.8 18.95 27.6V23.2H20.05C20.4 23.2 20.65 22.9 20.65 22.6C20.6 22.25 20.3 22 19.95 22Z" fill="#FAE300"/>
<path d="M28.75 27.0497H27.05V22.5997C27.05 22.2497 26.75 21.9497 26.4 21.9497C26.05 21.9497 25.75 22.2497 25.75 22.5997V27.5997C25.75 27.8997 26 28.1497 26.3 28.1497H28.8C29.1 28.1497 29.35 27.8997 29.35 27.5997C29.3 27.2997 29.05 27.0497 28.75 27.0497Z" fill="#FAE300"/>
<path d="M34.2 27.2499L32.3 24.7499L34 23.0499C34.25 22.7999 34.25 22.4499 34 22.1999C33.75 21.9499 33.4 21.9499 33.15 22.1999L31.05 24.2999V22.5499C31.05 22.1999 30.75 21.8999 30.4 21.8999C30.05 21.8999 29.75 22.1999 29.75 22.5499V27.4999C29.75 27.8499 30.05 28.1499 30.4 28.1499C30.75 28.1499 31.05 27.8499 31.05 27.4999V25.9999L31.45 25.5999L33.25 27.9499C33.45 28.1999 33.85 28.2499 34.1 28.0499C34.35 27.8999 34.4 27.4999 34.2 27.2499Z" fill="#FAE300"/>
<path d="M25.2 27.3999L23.4 22.3999C23.3 22.0999 22.95 21.8999 22.55 21.8999C22.1 21.8999 21.75 22.1499 21.65 22.5499C21.65 22.5832 21.6333 22.6166 21.6 22.6499L19.8 27.4499C19.7 27.7499 19.85 28.0999 20.15 28.1999C20.45 28.2999 20.8 28.1499 20.9 27.8499L21.2 26.9499H23.7L24 27.8499C24.1 28.1499 24.45 28.3499 24.75 28.1999C25.15 28.0499 25.3 27.7499 25.2 27.3999ZM21.65 25.7999L22.5 23.3999H22.55L23.4 25.7999H21.65Z" fill="#FAE300"/>
</svg>
