<svg width="120" height="28" viewBox="0 0 120 28" fill="none" xmlns="http://www.w3.org/2000/svg">
<path d="M111.476 27.3579C105.776 27.3408 102.285 23.6608 102.302 17.7727C102.285 12.0387 105.828 8.15332 111.271 8.15332C116.149 8.15332 120 11.2343 120 17.5674C120 18.3614 119.356 19.0051 118.562 19.0051H107.3C107.3 21.8122 108.96 23.541 111.579 23.5581C112.538 23.5486 113.344 23.3126 113.957 22.9143C114.807 22.3618 115.689 21.6753 116.703 21.6753C118.333 21.6753 119.559 23.2437 118.529 24.5072C117.078 26.2879 114.634 27.3462 111.476 27.3579ZM107.3 15.8215H115.208C115.19 13.5621 113.633 11.936 111.374 11.9532C109.046 11.936 107.403 13.6819 107.3 15.8215Z" fill="#1E1E1E"/>
<path d="M95.0626 26.9758C93.6723 26.8195 92.6719 25.5658 92.8282 24.1755L94.3387 10.7381C94.495 9.34781 95.7487 8.34743 97.139 8.50371C98.5293 8.65999 99.5297 9.91375 99.3734 11.3041L97.863 24.7414C97.7067 26.1317 96.4529 27.1321 95.0626 26.9758ZM94.9418 3.22726C95.1024 1.79848 96.4722 0.798428 97.9879 0.951583C99.4828 1.13684 100.596 2.41604 100.419 3.84291C100.279 5.23959 98.9073 6.25664 97.4105 6.08839C95.8967 5.91823 94.785 4.62202 94.9418 3.22726Z" fill="#FFC42E"/>
<path d="M86.258 13.9047C85.0531 13.9047 84.0633 12.8623 83.0345 12.235C82.5325 11.9288 81.8858 11.7557 81.1254 11.748C79.4822 11.7651 78.2327 12.5354 78.2498 13.6651C78.2327 14.5038 78.8831 15.1542 80.6461 15.5136L83.9667 16.1983C87.5783 16.9514 89.3241 18.5603 89.3413 21.2305C89.3241 24.8934 86.0378 27.3411 81.0911 27.3582C77.49 27.3459 74.9567 26.1863 73.6561 24.1899C72.8114 22.8934 74.0639 21.4701 75.6112 21.4701C76.8765 21.4701 77.8974 22.5931 78.9967 23.2196C79.5375 23.5279 80.2437 23.6875 81.0911 23.6953C82.9397 23.6782 84.1721 22.9422 84.1721 21.744C84.1721 20.7855 83.3847 20.1864 81.6389 19.827L78.5579 19.2108C75.0148 18.509 73.2005 16.6947 73.2176 13.9389C73.2005 10.3787 76.2643 8.15356 81.0569 8.15356C84.4908 8.15356 86.9704 9.34649 88.1597 11.3695C88.8902 12.612 87.6992 13.9047 86.258 13.9047Z" fill="#1E1E1E"/>
<path d="M67.3629 9.28742C66.0459 9.28742 65.034 8.14026 64.0728 7.23998C63.3345 6.54852 62.2078 6.17223 60.7665 6.17223C58.1648 6.17223 56.7099 7.37038 56.6928 9.01355C56.6757 10.8108 58.5242 11.6153 60.6638 12.0945L62.8889 12.6422C67.1338 13.6179 70.3003 15.7745 70.3175 19.8996C70.3003 24.4355 66.7744 27.3452 60.7323 27.3281C55.7994 27.3422 52.3403 25.4647 51.1865 21.8292C50.7525 20.4615 51.9562 19.2492 53.3911 19.2492C54.7296 19.2492 55.7404 20.404 56.5872 21.4406C57.4419 22.487 58.8959 23.0148 60.6638 23.0148C63.3682 23.0148 65.1141 21.7482 65.1141 19.8996C65.1141 18.2051 63.5736 17.4177 60.8692 16.7502L58.1648 16.0998C53.9884 15.0728 51.4209 12.9846 51.4209 9.35588C51.4038 4.85426 55.3748 1.85889 60.8007 1.85889C65.1491 1.85889 68.3182 3.7672 69.4849 6.73536C70.0103 8.07184 68.799 9.28742 67.3629 9.28742Z" fill="#1E1E1E"/>
<path d="M34.6113 26.9799C33.01 26.9799 31.7119 25.6818 31.7119 24.0805V4.68925C31.7119 3.31188 32.8285 2.19531 34.2058 2.19531H46.2266C47.3988 2.19531 48.3491 3.14556 48.3491 4.31775C48.3491 5.48994 47.3988 6.44019 46.2266 6.44019H36.8468V12.4652H45.3708C46.543 12.4652 47.4933 13.4154 47.4933 14.5876C47.4933 15.7598 46.543 16.71 45.3708 16.71H36.8468V22.735H46.2609C47.4331 22.735 48.3833 23.6853 48.3833 24.8575C48.3833 26.0297 47.4331 26.9799 46.2609 26.9799H34.6113Z" fill="#1E1E1E"/>
<path d="M0 6.00538C0 3.90114 1.70583 2.19531 3.81007 2.19531C5.35685 2.19531 6.75013 3.13045 7.33613 4.56193L13.1962 18.8769C13.2276 18.9536 13.3022 19.0036 13.385 19.0036C13.4679 19.0036 13.5425 18.9536 13.5739 18.8769L19.434 4.56193C20.02 3.13045 21.4132 2.19531 22.96 2.19531C25.0643 2.19531 26.7701 3.90114 26.7701 6.00538V24.4809C26.7701 25.8611 25.6513 26.9799 24.2711 26.9799C22.8909 26.9799 21.7721 25.8611 21.7721 24.4809V10.8761C21.7721 10.8084 21.7172 10.7535 21.6496 10.7535C21.5995 10.7535 21.5545 10.784 21.5358 10.8304L15.7336 25.2899C15.3489 26.2488 14.4196 26.8772 13.3864 26.8772C12.3519 26.8772 11.4217 26.2472 11.0378 25.2865L5.23417 10.7621C5.21558 10.7156 5.17054 10.6851 5.12045 10.6851C5.05282 10.6851 4.998 10.7399 4.998 10.8075V24.4809C4.998 25.8611 3.87916 26.9799 2.499 26.9799C1.11884 26.9799 0 25.8611 0 24.4809V6.00538Z" fill="#1E1E1E"/>
</svg>
